<?xml version="1.0" encoding="utf-8"?>
<!-- Generator: Adobe Illustrator 25.3.0, SVG Export Plug-In . SVG Version: 6.00 Build 0)  -->
<svg version="1.1" id="Capa_1" xmlns="http://www.w3.org/2000/svg" xmlns:xlink="http://www.w3.org/1999/xlink" x="0px" y="0px"
	 viewBox="0 0 426.28 322.89" style="enable-background:new 0 0 426.28 322.89;" xml:space="preserve">
<style type="text/css">
	.st0{fill:none;stroke:#000000;stroke-width:6;stroke-linecap:round;stroke-miterlimit:10;}
</style>
<g>
	<path d="M62.89-205.21c0.77-10.41,7.11-14.68,16.64-13.62c10.13,1.13,13.88-1.76,13.07-12.58c-0.86-11.4,5.4-18.21,14.17-17.45
		c10.33,0.89,14.15,7.75,12.95,17.22c-1.27,10.03,1.59,13.91,12.45,12.94c11.16-1,18.71,5.42,17.84,13.63
		c-1.07,10.08-7.83,14.1-17.38,13.05c-9.54-1.04-14.22,0.96-13.09,12.27c1.19,11.88-4.45,18.32-13.43,17.7
		c-11.13-0.76-14.54-8.6-13.61-18.12c0.98-10.14-2.88-12.99-12.46-11.89C70.66-190.98,63.97-194.71,62.89-205.21z"/>
	<g>
		<circle cx="297.53" cy="-211" r="11"/>
		<circle cx="349.53" cy="-211" r="11"/>
		<circle cx="323.53" cy="-211" r="11"/>
		<circle cx="323.53" cy="-238" r="11"/>
		<circle cx="323.53" cy="-184" r="11"/>
	</g>
	<path d="M383.4-300.4c-28.66-15.71-67.31,8.8-112.06,37.18c-8.38,5.31-17.17,8.36-26.09,9.95c-2.36-20.67-19.91-36.73-41.22-36.73
		c-22.92,0-41.5,18.58-41.5,41.5c0,19.34,13.23,35.59,31.13,40.19l-0.73,112.16c-11.77-0.41-19.1-1.23-19.38-1.26
		c-0.35-0.04-35.67-4.56-69.87-23.43c-44.13-24.35-65.05-60.31-62.18-106.9c2.96-48.03,30.15-89.34,88.02-107.27
		c38.24-11.85,99.5,15.3,118.32,24.26c3.45,1.64,7.54,1.01,10.33-1.6c4.88-4.55,3.52-12.6-2.58-15.29
		C225.97-340.69,153.4-365.16,121.53-355c-68,21.67-101.36,66.93-104.98,125.73c-3.46,56.26,22.49,101.32,75.05,130.32
		c38.38,21.18,77.26,26.15,78.95,26.36c1.69,0.2,15.8,1.8,36.43,1.8c43.06,0,114.52-6.96,160.66-48.06
		c28.92-25.76,43.52-60.9,43.39-104.44C410.9-265.63,402.12-290.14,383.4-300.4z M351.06-137.56
		c-36.4,32.46-93.86,40.33-133.5,41.49l0.74-113.45c9.51-3.49,17.4-10.35,22.19-19.15c15.08-0.95,30.09-4.46,44.23-13.43
		c33.25-21.09,70.94-44.98,86.66-36.37c5.42,2.97,14.52,14.09,14.64,55.26C386.14-187.17,374.37-158.35,351.06-137.56z"/>
	<ellipse cx="159.53" cy="-123" rx="22" ry="6"/>
	<ellipse cx="253.53" cy="-123" rx="22" ry="6"/>
</g>
<g>
	<path d="M64.91,172.02c0.77-10.41,7.11-14.68,16.64-13.62c10.13,1.13,13.88-1.76,13.07-12.58c-0.86-11.4,5.4-18.21,14.17-17.45
		c10.33,0.89,14.15,7.75,12.95,17.22c-1.27,10.03,1.59,13.91,12.45,12.94c11.16-1,18.71,5.42,17.84,13.63
		c-1.07,10.08-7.83,14.1-17.38,13.05c-9.54-1.04-14.22,0.96-13.09,12.27c1.19,11.88-4.45,18.32-13.43,17.7
		c-11.13-0.76-14.54-8.6-13.61-18.12c0.98-10.14-2.88-12.99-12.46-11.89C72.68,186.25,65.99,182.52,64.91,172.02z"/>
	<g>
		<circle cx="299.55" cy="171.77" r="11"/>
		<circle cx="351.55" cy="171.77" r="11"/>
		<circle cx="325.55" cy="171.77" r="11"/>
		<circle cx="325.55" cy="144.77" r="11"/>
		<circle cx="325.55" cy="198.77" r="11"/>
	</g>
	<ellipse cx="183.55" cy="283" rx="22" ry="6"/>
	<ellipse cx="241.55" cy="283" rx="22" ry="6"/>
	<path class="st0" d="M213.64,92.76v117.18c0,0,5.15,54.59-147.72,54.59"/>
	<path class="st0" d="M214.05,92v117.18c0,0-5.15,54.59,147.72,54.59"/>
	<path d="M422.23,137.33c-1.92-13.24-6.09-26.14-12.01-38.02c-2.97-5.94-6.42-11.61-10.15-17.04c-1.84-2.74-3.84-5.34-5.84-7.95
		c-2.08-2.53-4.13-5.09-6.33-7.5c-2.13-2.48-4.44-4.78-6.67-7.14c-2.34-2.25-4.6-4.59-7.03-6.73c-1.2-1.08-2.37-2.2-3.61-3.24
		l-3.74-3.07c-2.51-2.03-4.95-4.13-7.52-6.08c-10.33-7.78-21.38-14.67-33.1-20.33l-8.93-3.91c-0.01,0-0.02-0.01-0.03-0.01l-9.2-3.27
		c-1.52-0.59-3.12-0.95-4.68-1.4l-4.71-1.29l-2.34-0.64c-0.01,0-0.02-0.01-0.03-0.01l-2.38-0.48l-4.79-0.95
		c-12.81-2.38-25.93-2.84-38.79-1.61c-0.8,0.07-1.61,0.12-2.41,0.21l-2.4,0.34l-4.79,0.69c-1.6,0.19-3.17,0.57-4.75,0.87l-4.72,0.97
		c-3.11,0.79-6.22,1.6-9.29,2.48l-4.57,1.47l-2.28,0.74c-0.5,0.17-0.99,0.35-1.49,0.54c-0.49-0.19-0.99-0.38-1.49-0.54l-2.28-0.74
		l-4.57-1.47c-3.08-0.88-6.18-1.7-9.29-2.48l-4.72-0.97c-1.58-0.3-3.15-0.69-4.75-0.87l-4.79-0.69l-2.4-0.34
		c-0.8-0.09-1.61-0.14-2.41-0.21c-12.86-1.24-25.98-0.78-38.79,1.61l-4.79,0.95l-2.38,0.48c-0.01,0-0.02,0-0.03,0.01l-2.34,0.64
		l-4.71,1.29c-1.57,0.45-3.16,0.81-4.68,1.4l-9.2,3.27c-0.01,0-0.02,0.01-0.03,0.01l-8.93,3.91c-11.71,5.66-22.77,12.55-33.1,20.33
		c-2.57,1.95-5.01,4.06-7.52,6.08l-3.74,3.07c-1.23,1.04-2.4,2.17-3.61,3.24c-2.42,2.14-4.69,4.47-7.03,6.73
		c-2.24,2.37-4.54,4.66-6.67,7.14c-2.2,2.41-4.26,4.96-6.33,7.5c-2,2.61-4,5.21-5.84,7.95c-3.73,5.43-7.17,11.1-10.15,17.04
		c-5.93,11.89-10.1,24.79-12.01,38.02c-1.93,13.24-1.66,26.73,0.51,39.76c0.16,0.97,0.35,1.94,0.53,2.91c0,0.01,0,0.02,0,0.03
		c0.16,1.44,0.31,2.88,0.61,4.29l0.93,4.92c0.38,1.62,0.85,3.22,1.27,4.83l0.65,2.39c0,0.01,0.01,0.02,0.01,0.03l0.8,2.34
		c0.55,1.56,1.03,3.15,1.65,4.68l1.89,4.57c0.41,1.05,0.91,2.05,1.4,3.05c0.01,0.01,0.01,0.02,0.02,0.04l0.51,1.32
		c0,0.01,0.01,0.02,0.01,0.02l1.01,2.23c5.25,12,11.97,23.33,19.91,33.69c15.86,20.74,36.63,37.55,59.99,48.69
		c2.93,1.37,5.84,2.79,8.87,3.93c3,1.2,5.98,2.46,9.06,3.41c3.06,1.01,6.12,2.08,9.2,2.86l4.61,1.27l2.3,0.63l2.33,0.54
		c12.35,3.1,24.95,5.03,37.57,6.19l4.73,0.4c1.58,0.12,3.15,0.31,4.74,0.33l9.49,0.32l2.37,0.08l2.37-0.04l4.74-0.08l4.73-0.06
		l2.37-0.04l2.36-0.16l5.04-0.34c0.02,0,0.04,0,0.06,0l5.04,0.34l2.36,0.16l2.37,0.04l4.73,0.06l4.74,0.08l2.37,0.04l2.37-0.08
		l9.49-0.32c1.59-0.02,3.16-0.21,4.74-0.33l4.73-0.4c12.61-1.17,25.21-3.09,37.57-6.19l2.33-0.54l2.3-0.63l4.61-1.27
		c3.08-0.78,6.14-1.85,9.2-2.86c3.09-0.96,6.06-2.22,9.06-3.41c3.03-1.13,5.93-2.56,8.87-3.93c23.36-11.14,44.14-27.95,59.99-48.69
		c7.93-10.36,14.66-21.69,19.91-33.69l1.01-2.23c0-0.01,0.01-0.02,0.01-0.02l0.51-1.32c0-0.01,0.01-0.03,0.02-0.04
		c0.49-1,0.99-2.01,1.4-3.05l1.89-4.57c0.61-1.53,1.09-3.12,1.65-4.68l0.8-2.34c0-0.01,0.01-0.02,0.01-0.03l0.65-2.39
		c0.42-1.61,0.89-3.2,1.27-4.83l0.93-4.92c0.31-1.41,0.45-2.85,0.61-4.29c0-0.01,0-0.02,0-0.03c0.18-0.97,0.37-1.93,0.53-2.91
		C423.89,164.06,424.15,150.57,422.23,137.33z M51.82,77.66c1.87-2.29,3.94-4.44,5.93-6.64c2.1-2.11,4.13-4.3,6.33-6.33
		c1.09-1.03,2.15-2.08,3.26-3.08l3.39-2.96c2.27-1.96,4.48-4.01,6.81-5.9c9.33-7.52,19.29-14.18,29.83-19.72
		c2.67-1.28,5.33-2.61,8-3.92c0.01,0,0.02-0.01,0.03-0.01l8.24-3.36c1.36-0.61,2.8-0.99,4.2-1.47l4.24-1.38l2.1-0.69
		c0.01,0,0.02-0.01,0.03-0.01l2.15-0.53l4.33-1.07c11.58-2.64,23.54-3.83,35.52-3.38c0.08,0,0.16,0.01,0.25,0.01
		c7.43,0.3,9.92,10.09,3.61,14.01c-0.43,0.27-0.86,0.54-1.29,0.81c-5.35,3.35-10.51,6.99-15.47,10.87
		c-4.84,3.79-9.49,7.78-13.82,12.18c-0.18,0.18-0.18,0.47-0.01,0.65l0.5,0.53c0.16,0.17,0.43,0.19,0.62,0.04
		c4.68-3.78,9.68-7.24,14.76-10.48c5.19-3.34,10.57-6.38,16.03-9.2c3.79-1.99,7.65-3.82,11.56-5.52c13.2-5.72,28.16-5.72,41.36,0
		c3.91,1.69,7.77,3.53,11.56,5.52c5.46,2.82,10.84,5.85,16.03,9.2c5.08,3.24,10.08,6.71,14.76,10.49c0.19,0.15,0.45,0.13,0.62-0.04
		l0.5-0.53c0.17-0.18,0.17-0.47-0.01-0.65c-4.33-4.39-8.98-8.38-13.82-12.18c-4.96-3.88-10.12-7.52-15.47-10.87
		c-0.43-0.27-0.86-0.54-1.29-0.81c-6.32-3.92-3.82-13.71,3.61-14.01c0.08,0,0.16-0.01,0.25-0.01c11.99-0.46,23.94,0.73,35.52,3.38
		l4.33,1.07l2.14,0.53c0.01,0,0.02,0.01,0.03,0.01l2.1,0.69l4.24,1.38c1.41,0.48,2.84,0.86,4.2,1.47l8.24,3.36
		c0.01,0,0.02,0.01,0.03,0.01c2.67,1.31,5.32,2.64,8,3.92c10.54,5.54,20.5,12.2,29.83,19.72c2.33,1.89,4.53,3.94,6.81,5.9l3.39,2.96
		c1.11,1.01,2.17,2.06,3.26,3.08c2.2,2.03,4.22,4.22,6.33,6.33c1.99,2.21,4.06,4.35,5.93,6.64c2.48,2.89,4.82,5.87,7.06,8.93
		c-0.18-0.13-0.35-0.27-0.53-0.4l-2.16-1.47L378.75,84c-0.01-0.01-0.02-0.01-0.02-0.01l-1.12-0.66L375.35,82
		c-0.77-0.41-1.56-0.8-2.34-1.19c-6.27-3.16-13.19-4.99-20.07-5.79c-6.9-0.7-13.79-0.35-20.38,0.86
		c-6.61,1.16-12.96,3.04-19.03,5.39c-6.09,2.33-11.94,5.06-17.59,8.08c-5.64,3.02-11.12,6.26-16.45,9.68
		c-5.31,3.44-10.5,7.03-15.6,10.69c-5.86,4.17-11.56,8.51-17.23,12.86c-0.02,0.01-0.04,0.03-0.06,0.04
		c-31.36,17.75-30.18-13.95-30.01-16.89c0.01-0.14-0.05-0.27-0.16-0.37l-2.15-1.87c-0.28-0.25-0.73-0.07-0.76,0.31l-0.11,1.28
		c-0.02,0.24-0.22,0.42-0.46,0.42l-1.87,0.01c-0.26,0-0.47,0.22-0.46,0.48c0.2,4.17,0.59,33.84-29.82,16.75
		c-0.02-0.01-0.04-0.02-0.06-0.04c-5.71-4.39-11.46-8.77-17.37-12.97c-5.1-3.66-10.29-7.25-15.6-10.69
		c-5.32-3.42-10.8-6.66-16.45-9.68c-5.64-3.02-11.5-5.75-17.59-8.08c-6.08-2.35-12.43-4.23-19.03-5.39
		c-6.59-1.22-13.48-1.57-20.38-0.86c-6.88,0.8-13.8,2.63-20.07,5.79c-0.78,0.4-1.57,0.78-2.34,1.19l-2.26,1.33l-1.12,0.66
		c-0.01,0-0.02,0.01-0.02,0.01l-1.07,0.72l-2.16,1.47c-0.18,0.13-0.35,0.27-0.53,0.4C47,83.53,49.34,80.55,51.82,77.66z
		 M215.27,145.75c-0.31,0.2-0.62,0.4-0.93,0.59c-0.31,0.19-0.7-0.03-0.7-0.39V144c0-0.45,0.58-0.63,0.84-0.26l0.93,1.36
		C215.55,145.31,215.49,145.61,215.27,145.75z M405.2,174.52c-0.83,5.79-2.09,11.54-3.68,17.22c-0.4,1.42-0.8,2.84-1.26,4.25
		l-0.67,2.12l-0.75,2.08l-1.5,4.16l-0.75,2.07c0,0.01-0.01,0.02-0.01,0.03l-0.87,2.02c-4.49,10.92-10.3,21.32-17.29,30.9
		c-7,9.63-15.18,18.41-24.25,26.2c-0.42,0.33-0.85,0.66-1.27,0.99c-0.35,0.25-0.78,0.58-1.05,0.75l-0.36,0.24l-0.5,0.29l-2.01,1.14
		l-8.08,4.54c-2.71,1.48-5.37,3.07-8.12,4.47c-5.57,2.67-11.12,5.41-16.71,8.04c-22.59,10.04-46.48,17.28-70.88,20.95
		c-10.44,1.62-20.98,2.58-31.52,2.85c-0.01,0-0.02,0-0.03,0c-10.54-0.28-21.08-1.23-31.52-2.85c-24.4-3.66-48.29-10.9-70.88-20.95
		c-5.59-2.64-11.14-5.37-16.71-8.04c-2.75-1.4-5.41-2.99-8.12-4.47l-8.08-4.54l-2.01-1.14l-0.5-0.29l-0.36-0.24
		c-0.27-0.17-0.7-0.49-1.05-0.75c-0.42-0.33-0.85-0.66-1.27-0.99c-9.07-7.78-17.24-16.57-24.25-26.2
		c-6.98-9.58-12.79-19.98-17.29-30.9l-0.87-2.02c0-0.01-0.01-0.02-0.01-0.03l-0.75-2.07l-1.5-4.16l-0.75-2.08l-0.67-2.12
		c-0.46-1.41-0.86-2.83-1.26-4.25c-1.59-5.68-2.85-11.43-3.68-17.22c-0.65-4.54-1.05-9.11-1.21-13.67c-0.14-4.3,0.32-8.6,1.39-12.76
		l0,0c3.01-11.15,8.11-21.89,14.32-31.86c3.12-4.9,6.66-9.43,10.6-13.42c0.95-1.05,2.03-1.91,3.05-2.88
		c1.04-0.91,2.13-1.76,3.21-2.61c0.01-0.01,0.01-0.01,0.02-0.02l1.67-1.18l0.83-0.59c0.01-0.01,0.02-0.01,0.03-0.02l0.86-0.53
		l1.73-1.07c0.01-0.01,0.02-0.01,0.03-0.01l1.79-0.95c4.8-2.57,10.06-4.14,15.52-4.95c5.48-0.69,11.15-0.65,16.85,0.18
		c2.85,0.36,5.7,0.98,8.55,1.64c2.84,0.74,5.68,1.51,8.5,2.47c5.65,1.85,11.21,4.17,16.69,6.73c5.49,2.55,10.9,5.39,16.25,8.38
		c5.36,2.98,10.65,6.13,15.9,9.39c10.49,6.54,20.88,13.39,31.43,20.11c5.29,3.34,10.66,6.61,16.21,9.61
		c1.35,0.73,2.71,1.43,4.1,2.11c-0.41,0.22-0.82,0.42-1.23,0.63c0.4,0.53,0.69,1.13,0.87,1.77c0.08,0.26,0.35,0.42,0.61,0.32
		c0.6-0.23,1.2-0.46,1.79-0.71c0.35-0.14,0.69-0.29,1.03-0.44c0.12-0.05,0.25-0.05,0.36,0c0.34,0.15,0.68,0.3,1.03,0.44
		c0.85,0.35,1.72,0.69,2.6,1c0.29,0.1,0.58-0.1,0.62-0.4c0.06-0.47,0.17-0.93,0.34-1.37c0.08-0.22,0-0.47-0.21-0.57
		c-0.43-0.22-0.87-0.44-1.3-0.67c1.38-0.67,2.75-1.38,4.1-2.11c5.55-3.01,10.92-6.27,16.21-9.61c10.55-6.72,20.94-13.57,31.43-20.11
		c5.25-3.26,10.55-6.41,15.9-9.39c5.35-2.99,10.76-5.83,16.25-8.38c5.49-2.57,11.05-4.88,16.69-6.73c2.82-0.96,5.66-1.73,8.5-2.47
		c2.85-0.66,5.7-1.28,8.55-1.64c5.7-0.82,11.37-0.87,16.85-0.18c5.45,0.8,10.71,2.38,15.52,4.95l1.79,0.95
		c0.01,0,0.02,0.01,0.03,0.01l1.73,1.07l0.86,0.53c0.01,0.01,0.02,0.01,0.03,0.02l0.83,0.59l1.67,1.18c0.01,0,0.01,0.01,0.02,0.02
		c1.08,0.86,2.17,1.7,3.21,2.61c1.01,0.96,2.09,1.83,3.05,2.88c3.94,3.99,7.48,8.53,10.61,13.42c6.21,9.97,11.31,20.71,14.32,31.86
		l0,0c1.07,4.16,1.53,8.46,1.39,12.75C406.25,165.4,405.84,169.97,405.2,174.52z"/>
	<path d="M214.05,51.5c-13.81,0-25,11.19-25,25s11.19,25,25,25s25-11.19,25-25S227.86,51.5,214.05,51.5z M214.55,89
		c-6.63,0-12-5.37-12-12c0-6.63,5.37-12,12-12s12,5.37,12,12C226.55,83.63,221.18,89,214.55,89z"/>
</g>
</svg>
